# xmcd
# Copyright (C) 1995-1998 Ti Kan
#
# Track frame offsets:
#       150
#       21455
#       40961
#       62791
#       97671
#       118676
#       143206
#       159485
#       174340
#       186045
#       209076
#       226406
#       243661
#
# Disc length: 3543 seconds
#
# Revision: 0
# Processed by: cddbd v1.5.2PL0 Copyright (c) Steve Scherf et al.
# Submitted via: CD-Transfer v1.0
#
DISCID=b50dd50d
DTITLE=Toure, Ali Farka - Ali Farka Toure
DYEAR=06
DGENRE=
TTITLE0=Erdi
TTITLE1=Yer Bounda Fara
TTITLE2=Beto
TTITLE3=Savane
TTITLE4=Soya
TTITLE5=Penda Yoro
TTITLE6=Machengoidi
TTITLE7=Ledi Coumbe
TTITLE8=Hanana
TTITLE9=Soko Yhinka
TTITLE10=Gambari Didi
TTITLE11=Banga
TTITLE12=N'jarou
EXTD=
EXTT0=
EXTT1=
EXTT2=
EXTT3=
EXTT4=
EXTT5=
EXTT6=
EXTT7=
EXTT8=
EXTT9=
EXTT10=
EXTT11=
EXTT12=
PLAYORDER=
